#!OML:ASF E:/inclinewalkrobotboard/Project1/Captureday1/Session1/subject1.ASF
:FULLY-SPECIFIED
:DEGREES
126
root 0 0 0 -1.1668774296039959 -2.8472468231930885 -0.8791288317351316
lowerback 10.947383708415247 0.5622906565216216 0.47442126532974604
upperback -1.1098438313440133 0.8809797045778662 0.9146828086424017
thorax -7.285813957469026 0.4050958281840291 0.4494288474407948
lowerneck -13.414111963260371 -1.412877116887086 0.20987899753915823
upperneck 19.048936283311715 -1.4120705829702542 -2.3410313301448404
head 8.213630378516244 -0.8124289183582125 -1.0010201090524362
rclavicle -4.596610042785295E-16 -2.131125020362074E-16
rhumerus -11.967786616942819 -6.894871644486519 -67.39604809912461
rradius 42.76622606170514
rwrist 11.921191071395334
rhand -23.53772120437066 -5.206607393022836
rfingers 7.125020000000134
rthumb 3.1678876467369763 -35.367837935603546
lclavicle -9.813037206712091E-16 -8.013977585857288E-16
lhumerus -12.39151292383767 -4.10719380289156 68.69782445069151
lradius 43.670667231571194
lwrist -5.082314684588588
lhand -33.315077753334855 -10.740548463682392
lfingers 7.12502000000013
lthumb -6.6094631614124895 18.31454807271323
rfemur -17.525019557876917 0.288594738184615 22.480556262207852
rtibia 69.11942345884292
rfoot 5.193318711664592 -3.3819561113944987
rtoes 10.233559642318612
lfemur 9.827108213261395 -5.107684014929682 -29.252847999298176
ltibia 9.777571546659935
lfoot -15.44732343889138 -0.02136639057078682
ltoes -2.1994576497509506
127
root 0 0 0 -1.1581657253319204 -2.8491372792515777 -0.8701987514147
lowerback 10.950556585861884 0.5630614860167007 0.4709816116183356
upperback -1.1203800651582616 0.8813084949115036 0.9099042173206455
thorax -7.299912943372663 0.405493201049286 0.4455744744765153
lowerneck -13.389858623574424 -1.4026628975451856 0.22414340262604188
upperneck 19.047795961245672 -1.3969357770596642 -2.3614893137201123
head 8.209293882973766 -0.8058910297894695 -1.008545611070089
rclavicle -4.575495047177493E-16 -2.2075645322314505E-16
rhumerus -11.823173235708024 -6.79995543789696 -67.3061769641662
rradius 42.90463700467643
rwrist 11.990507039969003
rhand -23.586605839207667 -5.447462674508921
rfingers 7.125020000000134
rthumb 3.1178025793617827 -35.604741684157304
lclavicle -9.717898753846255E-16 -8.06322846869764E-16
lhumerus -12.084004817826438 -4.1816027252561625 68.47905066175483
lradius 43.91749015808199
lwrist -5.251979672740665
lhand -33.419891555504684 -11.302493269638132
lfingers 7.125020000000128
lthumb -6.710347787904757 17.755315056039493
rfemur -21.92077213692512 -0.0073734666751814615 20.798559855522
rtibia 68.15351341170371
rfoot 5.549208912103534 -4.38575093539307
rtoes 9.193105119571436
lfemur 11.641070996897623 -4.859567660548836 -29.831496126302852
ltibia 11.440793804433788
lfoot -15.089337198670268 -1.0791699003912996
ltoes -2.749101948331899
128
root 0 0 0 -1.1500006198660908 -2.8508814757596244 -0.8618802228836078
lowerback 10.953504770580361 0.5637598826886998 0.4678214282867093
upperback -1.1301810395233498 0.8815687240014469 0.9054581466073497
thorax -7.313092524793172 0.4058479495850347 0.4419783318834723
lowerneck -13.367169069595116 -1.393188870501629 0.23750824927912034
upperneck 19.046541592700965 -1.38294881103741 -2.3805330422620155
head 8.205217749041104 -0.7998390932564922 -1.0155678762406337
rclavicle -4.558368210760858E-16 -2.2952066583083817E-16
rhumerus -11.670778987847052 -6.699625809114622 -67.21136130113301
rradius 43.0501834998969
rwrist 12.063400297313155
rhand -23.637929016008687 -5.700076281860824
rfingers 7.125020000000133
rthumb 3.065387884490754 -35.85414371847201
lclavicle -9.633673855099447E-16 -8.112499462778329E-16
lhumerus -11.759594364918348 -4.26031313352605 68.24793471843982
lradius 44.17757445357487
lwrist -5.430304849937617
lhand -33.5308769105921 -11.896651988382654
lfingers 7.125020000000127
lthumb -6.816860185779081 17.165005573936767
rfemur -25.53914587363076 -0.0387975036094339 19.502486512266742
rtibia 65.88057900268475
rfoot 5.3454415692713155 -5.386174368384665
rtoes 8.019750713376743
lfemur 13.285310656698352 -4.5883991480906845 -30.288468100381852
ltibia 13.34173093204383
lfoot -14.599245990226034 -2.192456728909891
ltoes -3.386569657390959
129
root 0 0 0 -1.1431758196320603 -2.8523083574690395 -0.8549606892937136
lowerback 10.955943456634097 0.5643104015996274 0.46516068068704575
upperback -1.1383100855158539 0.8817718231781604 0.9017781713796105
thorax -7.324072937375069 0.40612666373084577 0.4390094941675411
lowerneck -13.348212220757059 -1.3853254868841596 0.2486679420711348
upperneck 19.045345889768356 -1.3714363360439372 -2.39638803609885
head 8.201792391948663 -0.7948324586010336 -1.0214066110672344
rclavicle -4.548829962604456E-16 -2.381058788564958E-16
rhumerus -11.526114804255824 -6.60436740914978 -67.12128686059164
rradius 43.18800885088253
rwrist 12.13256833793403
rhand -23.686525521515385 -5.939153785911742
rfingers 7.1250200000001325
rthumb 3.015913210133754 -36.090617381233486
lclavicle -9.55394229127495E-16 -8.158608353416601E-16
lhumerus -11.444104086800372 -4.337048732667321 68.02299218752914
lradius 44.43024105821861
lwrist -5.603095006952215
lhand -33.63920556040457 -12.475354835592611
lfingers 7.125020000000125
lthumb -6.920505186770292 16.59109324438615
rfemur -28.407084550661743 0.12731086116054247 18.553466463765353
rtibia 62.76581273852999
rfoot 4.756797696555573 -6.331833760465639
rtoes 6.825204734807582
lfemur 14.838259850968287 -4.295062575433054 -30.655368138912934
ltibia 15.48371207742327
lfoot -13.96754788210242 -3.385274837454328
ltoes -4.103707244459608
130
root 0 0 0 -1.1365934430673321 -2.853500150637642 -0.8484662712438624
lowerback 10.958226182048342 0.564740924931252 0.4624955003334602
upperback -1.1459255663793964 0.8819248256925576 0.8983376271225234
thorax -7.334572705539073 0.4063482366834888 0.4362740320919245
lowerneck -13.330050529228462 -1.3778980859282726 0.25934517601882284
upperneck 19.043984857970827 -1.3608155564039484 -2.4115852146269696
head 8.198501094960687 -0.7901708525766854 -1.026958253745029
rclavicle -4.543533729875146E-16 -2.4820539919745017E-16
rhumerus -11.350623700291301 -6.489140340900843 -67.01185062307366
rradius 43.35521166434796
rwrist 12.216578000424644
rhand -23.745440290310704 -6.229277180661931
rfingers 7.125020000000132
rthumb 2.956053107072425 -36.37770121586775
lclavicle -9.446371528484253E-16 -8.217808676189742E-16
lhumerus -11.030434853369695 -4.438033920922015 67.72816363417134
lradius 44.760764614529805
lwrist -5.828818298696953
lhand -33.78180142325387 -13.23566670382017
lfingers 7.125020000000124
lthumb -7.056526374066674 15.839193184161646
rfemur -31.366180095599624 0.6526484469330294 17.725851639114758
rtibia 57.14145785798115
rfoot 3.3719776783738205 -7.580674911824109
rtoes 5.127921880478589
lfemur 16.971617109638473 -3.8212981705698743 -31.054509647573397
ltibia 19.08263410115273
lfoot -12.772230604405182 -5.2925616353326825
ltoes -5.249134281364633
